<svg width="108" height="36" fill="none" xmlns="http://www.w3.org/2000/svg"><path d="M0 .518h5.721c2.729-.173 5.457.95 5.457 3.885 0 1.64-1.144 2.762-2.64 3.28 1.936.432 3.345 1.727 3.345 3.885 0 2.936-3.785 4.058-6.074 3.885H0V.518zm5.81 5.957c1.408 0 2.112-.518 2.112-1.727 0-1.208-.792-1.726-2.113-1.726H3.257v3.54h2.552v-.087zm0 6.388c1.496 0 2.552-.259 2.552-1.985 0-1.727-1.056-1.986-2.553-1.986H3.257v3.971h2.552zM17.075.518v14.849h-3.169V.518h3.169zm9.594 13.554c-.704.95-1.672 1.554-3.257 1.554-1.056 0-3.08-.777-3.433-2.245-.176-.604-.176-1.295-.176-1.64V5.007h3.17v6.216c0 1.122.351 2.417 1.848 2.417.968 0 1.848-.863 1.848-2.417V5.007h3.169v8.46c0 .605.088 1.21.088 1.814h-3.17l-.087-1.21zm8.714-3.022c0 1.382.176 2.59 1.848 2.59 1.056 0 1.673-.431 1.937-1.381h2.816c-.264 2.59-2.288 3.367-4.753 3.367-3.608 0-5.105-1.986-5.105-5.439 0-3.108 1.849-5.525 5.105-5.525 1.937 0 3.61.69 4.49 2.503.263.605.44 1.21.527 1.813.088.605.088 1.295.088 1.986h-6.953v.086zm3.697-2.072c0-1.122-.352-2.158-1.849-2.158-1.408 0-1.76 1.036-1.848 2.158h3.697zm13.907-3.712c0-1.554-.968-2.849-2.905-2.849-2.288 0-2.904 3.367-2.904 5.44 0 2.071.616 5.438 2.904 5.438 1.937 0 2.905-1.295 2.905-2.849h3.432c-.175 3.712-2.904 5.094-6.337 5.094-4.4 0-6.337-3.367-6.337-7.77 0-4.317 1.936-7.77 6.337-7.77 3.52 0 6.25 1.381 6.337 5.094h-3.432v.172zm8.01-.259l.088 1.9c.704-1.64 2.024-2.072 3.608-1.986v2.762h-1.408c-.528 0-1.232.346-1.496.777-.352.605-.44 1.123-.44 1.813v5.094h-3.17V7.079c0-.432-.087-1.295-.087-2.072h2.905zM71.56 15.712c-3.433 0-5.545-2.244-5.545-5.525 0-3.28 2.024-5.525 5.545-5.525 3.433 0 5.545 2.244 5.545 5.525 0 3.28-2.112 5.525-5.545 5.525zm0-2.072c1.936 0 2.288-1.813 2.288-3.453s-.352-3.453-2.288-3.453-2.289 1.813-2.289 3.453c.088 1.64.353 3.453 2.289 3.453zm13.115-5.87c0-.69-.704-1.036-1.409-1.036-.88 0-1.232.259-1.232.95 0 1.64 6.074.69 6.074 4.575 0 2.245-2.817 3.367-4.754 3.367-2.464 0-4.576-.95-4.665-3.28h2.905c.088.776.792 1.294 1.76 1.294.88 0 1.497-.345 1.497-1.122 0-.863-1.496-1.209-2.113-1.295-2.024-.432-3.873-.95-3.873-3.28 0-2.159 2.641-3.108 4.49-3.108 2.2 0 4.136.777 4.224 3.107h-2.904V7.77zm10.474 0c0-.69-.704-1.036-1.408-1.036-.88 0-1.232.259-1.232.95 0 1.64 6.073.69 6.073 4.575 0 2.245-2.817 3.367-4.753 3.367-2.465 0-4.577-.95-4.665-3.28h2.904c.088.776.793 1.294 1.76 1.294.881 0 1.497-.345 1.497-1.122 0-.863-1.496-1.209-2.112-1.295-2.025-.432-3.873-.95-3.873-3.28 0-2.159 2.64-3.108 4.489-3.108 2.2 0 4.137.777 4.225 3.107h-2.905V7.77zM0 20.72h5.721c2.729-.173 5.457.95 5.457 3.884 0 1.64-1.144 2.763-2.64 3.28 1.936.433 3.345 1.727 3.345 3.886 0 2.935-3.785 4.057-6.074 3.885H0V20.719zm5.81 5.956c1.408 0 2.112-.518 2.112-1.726 0-1.209-.792-1.727-2.113-1.727H3.257v3.54l2.552-.087zm0 6.389c1.496 0 2.552-.26 2.552-1.986 0-1.727-1.056-1.986-2.553-1.986H3.257v3.972h2.552zm11.266-12.346v14.85h-3.169v-14.85h3.169zm9.594 13.554c-.704.95-1.672 1.554-3.257 1.554-1.056 0-3.08-.777-3.433-2.33-.176-.605-.176-1.296-.176-1.64v-6.735h3.17v6.302c0 1.123.351 2.418 1.848 2.418.968 0 1.848-.864 1.848-2.418V25.21h3.169v8.46c0 .604.088 1.209.088 1.813h-3.17l-.087-1.209zm8.714-3.021c0 1.381.176 2.59 1.848 2.59 1.056 0 1.673-.432 1.937-1.382h2.816c-.264 2.59-2.288 3.367-4.753 3.367-3.608 0-5.105-1.985-5.105-5.438 0-3.108 1.849-5.526 5.105-5.526 1.937 0 3.61.691 4.49 2.504a7.06 7.06 0 01.527 1.813c.088.604.088 1.295.088 1.986l-6.953.086zm3.697-2.072c0-1.122-.352-2.158-1.849-2.158-1.408 0-1.76 1.036-1.848 2.158h3.697zm13.467-4.23c-.088-1.468-.968-2.245-2.553-2.245-1.232 0-2.376.604-2.376 1.9 0 1.64 1.496 1.812 2.816 2.071 2.289.605 5.721 1.209 5.721 4.23 0 3.713-3.256 5.008-6.513 5.008-3.433 0-5.897-1.295-5.81-5.094h3.346c-.089 1.64.88 2.763 2.552 2.763 1.32 0 2.993-.432 2.993-1.986 0-1.727-2.2-1.9-3.433-2.245-2.112-.518-5.017-1.467-5.017-4.143 0-3.367 3.169-4.921 6.337-4.921 2.905 0 5.193 1.554 5.193 4.575l-3.256.087zm5.809 10.618V20.72h3.169v5.785c.616-.95 1.672-1.554 3.256-1.554 1.057 0 3.081.777 3.433 2.244.176.605.176 1.295.176 1.64v6.734h-3.08v-6.215c0-1.123-.353-2.331-1.849-2.331-.968 0-1.848.863-1.848 2.33v6.216h-3.257zM74.465 20.72v2.677H71.12V20.72h3.345zm-.177 4.49v10.36H71.12V25.21h3.168zm5.546 6.043c0 1.381.176 2.59 1.848 2.59 1.056 0 1.673-.432 1.937-1.382h2.816c-.264 2.59-2.288 3.367-4.753 3.367-3.609 0-5.105-1.985-5.105-5.438 0-3.108 1.849-5.526 5.105-5.526 1.937 0 3.609.691 4.49 2.504a7.06 7.06 0 01.527 1.813c.088.604.088 1.295.088 1.986l-6.953.086zm3.609-2.072c0-1.122-.352-2.158-1.849-2.158-1.408 0-1.76 1.036-1.848 2.158h3.697zm8.361-8.46v14.848h-3.168V20.72h3.168zm10.035 0h3.168v12.863c0 .69.088 1.381.088 2.072h-3.168c0-.518-.088-.95-.088-1.468C101.134 35.396 99.99 36 98.582 36c-3.08 0-4.577-2.849-4.577-5.525 0-2.763 1.672-5.525 4.929-5.525 1.056 0 2.2.604 2.817 1.467l.088-5.698zm-2.289 13.12c1.673 0 2.289-1.986 2.289-3.453 0-1.382-.528-3.454-2.289-3.454-2.024 0-2.288 1.813-2.288 3.454 0 1.553.264 3.453 2.288 3.453zm.528-18.475a.967.967 0 01-.968-.95c0-.518.44-.95.968-.95s.968.432.968.95-.352.95-.968.95zm0-2.158c-.616 0-1.144.518-1.144 1.122 0 .604.528 1.122 1.144 1.122.616 0 1.145-.518 1.145-1.122 0-.604-.529-1.122-1.145-1.122z" fill="#231F20"/><path d="M100.078 14.33h-.264v-.43h.352c.176 0 .352 0 .352.172 0 .259-.264.259-.44.259zm.616-.258c0-.26-.088-.345-.44-.345h-.616v1.294h.176v-.604h.264l.44.604h.176l-.352-.604c.176 0 .352-.086.352-.345zm6.162 21.41a.967.967 0 01-.968-.95c0-.518.44-.95.968-.95s.968.432.968.95-.44.95-.968.95zm0-2.158c-.616 0-1.145.518-1.145 1.122 0 .604.529 1.122 1.145 1.122S108 35.05 108 34.446c0-.604-.528-1.122-1.144-1.122z" fill="#231F20"/><path d="M106.768 34.446h-.264v-.432h.352c.176 0 .352 0 .352.173 0 .259-.176.259-.44.259zm.704-.26c0-.258-.088-.344-.44-.344h-.616v1.295h.176v-.605h.264l.352.605h.176l-.352-.605c.264 0 .44-.086.44-.345z" fill="#231F20"/></svg>