<svg width="36" height="37" fill="none" xmlns="http://www.w3.org/2000/svg"><path d="M33.161 32.23c-1.136 0-2.01.868-2.01 1.997 0 1.13.874 1.998 2.01 1.998 1.05 0 2.011-.869 2.011-1.998s-.874-1.997-2.01-1.997zm0 3.647c-.961 0-1.66-.695-1.66-1.65s.699-1.65 1.66-1.65c.962 0 1.661.695 1.661 1.65s-.611 1.65-1.66 1.65z" fill="#008BCC"/><path d="M34.21 33.706c0-.434-.175-.608-.787-.608h-.962v2.258h.262v-.955h.525l.612.955h.35l-.7-.955c.437-.087.7-.26.7-.695zm-1.05.347h-.437v-.694h.612c.263 0 .525 0 .525.347.087.434-.437.347-.7.347zM17.424 20.94c-.087 0-.087 0-.175.087l-3.322 5.037a8.85 8.85 0 003.41.695 8.85 8.85 0 003.41-.695l-3.323-5.037c.088-.087 0-.087 0-.087zm-3.235-4.168l-4.983-.435a7.356 7.356 0 00-.263 1.998c0 2.084.787 3.995 2.011 5.471l3.498-6.6c.174-.174.087-.347-.263-.434z" fill="#008BCC"/><path d="M25.292 10.43V.618H9.468v9.814h-9.88v15.72h9.88v9.813h15.824V26.15h9.88V10.43h-9.88zm-7.868-1.823c3.934 0 7.344 2.258 8.83 5.645H19.26c-.962 0-1.4-.608-1.487-1.042 0-.521.088-.695.525-1.303.525-.695.175-1.91-.962-1.997-1.136 0-1.486 1.302-.961 1.997.437.608.524.782.524 1.303 0 .434-.437 1.042-1.486 1.042H8.418c1.662-3.3 5.071-5.645 9.006-5.645zM7.63 18.334c0-1.216.263-2.345.612-3.387l6.558.608c1.224.173 1.399 1.39 1.049 2.084l-4.459 8.424c-2.273-1.823-3.76-4.603-3.76-7.73zm15.126 8.163c-1.574 1.043-3.41 1.564-5.42 1.564-2.012 0-3.848-.608-5.421-1.564l4.808-7.034c.35-.521.875-.434 1.224 0l4.809 7.034zm.7-.52l-4.46-8.338c-.35-.695-.174-1.91 1.05-2.084l6.557-.608c.437 1.042.612 2.258.612 3.387a9.608 9.608 0 01-3.76 7.642z" fill="#008BCC"/><path d="M23.806 12.863c-1.05-1.216-2.448-2.172-4.022-2.606.525.782.088 1.91-.35 2.432-.087.087 0 .174 0 .174h4.372zm-3.148 3.908c-.35 0-.35.173-.262.347l3.497 6.6c1.224-1.476 2.011-3.387 2.011-5.471a7.36 7.36 0 00-.262-1.997l-4.984.52zm-5.595-6.427c-1.574.434-2.973 1.39-4.022 2.605h4.371c.088 0 .088-.086 0-.173-.437-.608-.874-1.65-.35-2.432z" fill="#008BCC"/></svg>