<svg width="30" height="37" viewBox="0 0 30 37" fill="none" xmlns="http://www.w3.org/2000/svg">
<path d="M26.9974 0.616943C23.1505 2.52759 19.3035 3.56977 14.8446 3.56977C10.3856 3.56977 6.53872 2.52759 2.69179 0.616943C0.156309 5.56727 -0.193412 13.5573 1.99234 20.2445C4.09067 26.6713 8.19989 32.5769 14.8446 36.2245C21.5767 32.5769 25.5985 26.6713 27.6968 20.2445C29.97 13.5573 29.5329 5.56727 26.9974 0.616943ZM25.2488 19.4629C23.3253 24.9343 20.4401 29.7978 14.932 33.1849C9.42391 29.7978 6.45129 24.9343 4.61525 19.4629C2.95408 14.5994 2.51693 8.86748 4.35296 4.43825C7.15073 5.39357 8.72447 5.65412 10.2108 5.91466C11.6097 6.1752 12.8337 6.26205 14.932 6.26205C16.9429 6.26205 18.2544 6.08835 19.6533 5.91466C21.1396 5.65412 22.8007 5.39357 25.5111 4.43825C27.2597 8.86748 26.91 14.5994 25.2488 19.4629Z" fill="#008BCC"/>
<path d="M19.6537 7.13055C18.0799 7.30425 16.4188 7.47794 14.845 7.47794C13.2713 7.47794 11.6975 7.30425 10.0363 7.13055C8.46261 6.87001 6.88886 6.52262 5.22769 6.08838C4.09109 9.3886 4.26595 13.5573 5.22769 17.2049C6.88886 24.1527 11.1729 29.4504 14.845 31.7953C18.6045 29.4504 22.8012 24.1527 24.4623 17.2049C25.3366 13.4704 25.5989 9.3886 24.4623 6.08838C22.8012 6.52262 21.3148 6.95686 19.6537 7.13055V7.13055ZM13.9707 28.582C13.8833 28.9294 14.0581 29.103 14.0581 29.2767C13.9707 29.5373 13.7959 29.4504 13.7084 29.2767C13.5336 29.0162 13.4461 28.8425 13.4461 28.4083C13.3587 27.7135 13.7084 27.4529 13.8833 27.2792C14.0581 27.1055 14.233 27.0187 14.233 27.0187L14.3204 28.1477C14.1456 28.1477 13.9707 28.2346 13.9707 28.582V28.582ZM15.457 29.711C15.457 29.8847 15.3696 30.0584 15.0199 30.0584C14.7576 30.0584 14.5827 29.9715 14.5827 29.6241C14.4953 28.2346 14.4953 25.716 14.4953 25.716C14.4953 25.716 14.845 25.8028 15.1073 25.9765C15.1947 25.9765 15.3696 26.1502 15.5445 26.3239C15.5445 26.4108 15.6319 26.4108 15.6319 26.4976C15.5445 27.4529 15.457 29.2767 15.457 29.711V29.711ZM16.5936 27.1055C16.2439 27.3661 15.8942 27.4529 15.8942 27.4529V26.4108C15.8942 26.4108 15.9816 26.3239 15.9816 26.1502C15.8942 25.9765 15.1947 25.4554 14.845 25.2817C14.4079 25.108 13.8833 24.9343 13.5336 24.8475C12.6593 24.5001 12.3095 23.7185 12.6593 22.85C12.7467 22.5026 13.1838 22.3289 13.3587 22.2421C13.5336 22.1552 13.8833 22.0684 13.8833 22.0684L13.9707 23.2842C13.9707 23.2842 13.8833 23.2842 13.7958 23.4579C13.7084 23.6316 13.8833 23.8053 13.9707 23.8053C14.5827 24.0659 15.3696 24.4133 15.9816 24.7607C16.7685 25.1949 17.0308 25.5423 17.0308 26.1502C17.1182 26.5845 16.8559 26.9319 16.5936 27.1055ZM14.4079 21.4604C15.0199 21.5473 15.1947 21.5473 15.7193 21.6341L15.6319 24.0659L15.1073 23.8053L14.5827 23.5448L14.4079 21.4604ZM17.9051 21.9815C17.8176 22.4158 17.5554 22.7632 17.1182 23.0237C16.681 23.2842 16.1565 23.2842 16.1565 23.2842V21.8078C16.1565 21.8078 16.2439 21.8078 16.3313 21.721C16.4188 21.6341 16.4188 21.5473 16.4188 21.4604C16.4188 21.3736 16.3313 21.2867 16.2439 21.1999C16.069 21.113 15.8942 21.113 15.8067 21.113L13.7084 20.8525C12.4844 20.6788 11.5227 19.8972 11.6101 18.6813C11.6975 17.8997 12.4844 17.6391 13.0964 17.3786L13.5336 18.2471C13.621 18.5945 13.7084 18.7682 13.7084 18.7682C13.7084 18.7682 13.4461 18.855 13.4461 19.0287C13.4461 19.2024 13.7084 19.2892 13.7958 19.2892C14.6702 19.3761 15.8942 19.5498 16.5062 19.8103C16.9433 19.984 17.2931 20.1577 17.5554 20.5051C17.9051 21.113 17.9925 21.5473 17.9051 21.9815V21.9815ZM13.8833 16.3364C13.8833 16.3364 14.1456 16.3364 14.9324 16.4233C15.457 16.4233 15.8942 16.597 15.8942 16.597L15.8067 19.2024C15.1947 19.1155 14.845 19.0287 14.3204 18.9419C14.1456 17.9865 13.8833 17.6391 13.5336 16.9444C13.4461 16.7707 13.5336 16.6838 13.5336 16.6838C13.621 16.597 13.9707 16.5101 13.9707 16.5101L13.8833 16.3364V16.3364ZM16.2439 18.9419C16.2439 18.9419 16.3313 17.726 16.3313 17.118C16.681 17.0312 16.7685 16.6838 16.5936 16.4233C16.5062 16.2496 16.2439 16.1627 16.1565 16.1627C15.457 15.989 14.845 15.989 14.1456 15.9022C13.5336 15.8153 13.009 15.7285 12.4844 15.6416C11.3478 15.3811 10.2986 14.7732 9.77406 13.731C9.16205 12.4283 9.68663 10.7782 10.9981 10.1702C11.9598 9.64914 13.009 9.73599 13.9707 10.1702C14.3204 10.2571 14.4953 10.6045 14.6702 10.865C14.7576 10.9519 14.9324 11.0387 15.0199 11.2124C15.1073 11.2992 14.9324 11.2992 14.9324 11.2992C14.7576 11.3861 13.9707 11.3861 13.7958 11.2992H12.7467C13.009 11.4729 13.3587 11.6466 13.7084 11.8203C13.8833 11.9072 14.0581 11.9072 14.233 11.994C14.3204 11.994 14.4953 12.0809 14.4953 12.1677C14.4953 12.2546 14.3204 12.2546 14.1456 12.3414C13.8833 12.4283 13.5336 12.4283 13.1838 12.3414C12.6593 12.2546 12.397 11.9072 12.0472 12.0809C11.785 12.2546 11.785 12.5151 11.8724 12.8625C11.9598 13.3836 12.4844 13.5573 12.9215 13.731C14.4079 14.2521 16.069 13.9047 17.4679 14.6863C17.9925 14.9469 18.6919 15.5548 18.7794 16.1627C19.2165 18.5945 16.2439 18.9419 16.2439 18.9419V18.9419ZM18.8668 10.865C18.7794 11.1256 18.6919 11.1256 18.5171 11.2992C18.1674 11.6466 17.6428 11.994 17.1182 12.4283C16.7685 12.6888 16.5062 12.8625 16.2439 13.2967C16.1565 13.3836 16.069 13.5573 16.069 13.5573C15.1947 13.3836 14.4079 13.3836 13.7084 13.2099V12.5151C13.7084 12.5151 14.4953 12.5151 14.5827 11.994C14.5827 11.994 14.5827 11.8203 14.4953 11.7335C14.4079 11.6466 14.1456 11.5598 14.0581 11.5598C14.6702 11.6466 15.2822 11.9072 15.8942 12.1677C15.8942 12.0809 15.8067 11.8203 15.8067 11.8203C15.7193 11.7335 15.6319 11.6466 15.3696 11.5598C15.0199 11.4729 14.0581 11.3861 14.0581 11.3861H14.845C15.0199 11.3861 15.2822 11.2992 15.2822 11.2124C15.3696 11.1256 15.2822 10.9519 15.1073 10.7782L14.845 10.5176C14.7576 10.3439 14.5827 10.1702 14.4953 9.99653C14.3204 9.73599 13.621 9.47544 13.621 9.47544C13.621 9.47544 13.5336 9.0412 13.7084 8.86751C13.7959 8.69381 14.1456 8.69381 14.233 8.78066C14.6702 9.0412 15.2822 9.30175 15.8942 9.47544C16.069 9.56229 16.069 9.56229 16.069 9.82283C16.1565 10.2571 15.9816 10.865 16.069 11.1256C16.069 11.2124 16.2439 11.2124 16.2439 11.2124C16.8559 10.865 17.2056 10.3439 17.8176 10.0834C18.2548 9.90968 19.0417 10.2571 18.8668 10.865V10.865ZM27.1727 32.3164C26.1235 32.3164 25.2492 33.1849 25.2492 34.2271C25.2492 35.2692 26.1235 36.1377 27.1727 36.1377C28.2218 36.1377 29.0961 35.2692 29.0961 34.2271C29.0961 33.1849 28.2218 32.3164 27.1727 32.3164ZM27.1727 35.8772C26.2109 35.8772 25.5115 35.1824 25.5115 34.2271C25.5115 33.2717 26.2109 32.577 27.1727 32.577C28.1344 32.577 28.8338 33.2717 28.8338 34.2271C28.8338 35.1824 28.1344 35.8772 27.1727 35.8772Z" fill="#008BCC"/>
<path d="M28.2208 33.706C28.2208 33.2717 28.0459 33.098 27.4339 33.098H26.4722V35.3561H26.7345V34.4008H27.1716L27.7836 35.3561H28.1334L27.4339 34.4008C27.8711 34.3139 28.2208 34.1402 28.2208 33.706ZM27.1716 34.1402H26.7345V33.4454H27.3465C27.6088 33.4454 27.8711 33.4454 27.8711 33.7928C27.8711 34.1402 27.4339 34.1402 27.1716 34.1402ZM13.0079 10.2571C13.1828 10.4308 13.1828 10.6045 13.4451 10.6045C13.6199 10.6045 13.7074 10.5176 13.7948 10.4308H13.9697C13.7074 10.1702 13.0954 10.1702 12.6582 10.0834C12.8331 10.2571 12.9205 10.1702 13.0079 10.2571Z" fill="#008BCC"/>
</svg>
