<svg width="108" height="36" viewBox="0 0 108 36" fill="none" xmlns="http://www.w3.org/2000/svg">
<path d="M0 0.517986H5.72127C8.44988 0.345324 11.1785 1.46763 11.1785 4.40288C11.1785 6.04317 10.0342 7.16547 8.5379 7.68345C10.4743 8.11511 11.8826 9.41007 11.8826 11.5683C11.8826 14.5036 8.0978 15.6259 5.80929 15.4532H0V0.517986ZM5.80929 6.47482C7.2176 6.47482 7.92176 5.95683 7.92176 4.7482C7.92176 3.53957 7.12959 3.02158 5.80929 3.02158H3.25672V6.56115H5.80929V6.47482ZM5.80929 12.8633C7.30562 12.8633 8.36186 12.6043 8.36186 10.8777C8.36186 9.15108 7.30562 8.89209 5.80929 8.89209H3.25672V12.8633H5.80929ZM17.0758 0.517986V15.3669H13.9071V0.517986H17.0758ZM26.6699 14.0719C25.9658 15.0216 24.9976 15.6259 23.4132 15.6259C22.357 15.6259 20.3325 14.8489 19.9804 13.3813C19.8044 12.777 19.8044 12.0863 19.8044 11.741V5.00719H22.9731V11.223C22.9731 12.3453 23.3252 13.6403 24.8215 13.6403C25.7897 13.6403 26.6699 12.777 26.6699 11.223V5.00719H29.8386V13.4676C29.8386 14.0719 29.9267 14.6763 29.9267 15.2806H26.7579L26.6699 14.0719ZM35.3839 11.0504C35.3839 12.4317 35.5599 13.6403 37.2323 13.6403C38.2885 13.6403 38.9047 13.2086 39.1687 12.259H41.9853C41.7213 14.8489 39.6968 15.6259 37.2323 15.6259C33.6235 15.6259 32.1272 13.6403 32.1272 10.187C32.1272 7.07914 33.9756 4.66187 37.2323 4.66187C39.1687 4.66187 40.8411 5.35252 41.7213 7.16547C41.9853 7.76978 42.1614 8.3741 42.2494 8.97842C42.3374 9.58273 42.3374 10.2734 42.3374 10.964H35.3839V11.0504ZM39.0807 8.97842C39.0807 7.85611 38.7286 6.82014 37.2323 6.82014C35.824 6.82014 35.4719 7.85611 35.3839 8.97842H39.0807ZM52.9878 5.26619C52.9878 3.71223 52.0196 2.41727 50.0831 2.41727C47.7946 2.41727 47.1785 5.78417 47.1785 7.85611C47.1785 9.92806 47.7946 13.295 50.0831 13.295C52.0196 13.295 52.9878 12 52.9878 10.446H56.4205C56.2445 14.1583 53.5159 15.5396 50.0831 15.5396C45.6822 15.5396 43.7457 12.1727 43.7457 7.76978C43.7457 3.45324 45.6822 0 50.0831 0C53.6039 0 56.3325 1.38129 56.4205 5.09352H52.9878V5.26619ZM60.9976 5.00719L61.0856 6.90647C61.7897 5.26619 63.11 4.83453 64.6944 4.92086V7.68345H63.2861C62.758 7.68345 62.0538 8.02878 61.7897 8.46043C61.4377 9.06475 61.3497 9.58273 61.3497 10.2734V15.3669H58.1809V7.07914C58.1809 6.64748 58.0929 5.78417 58.0929 5.00719H60.9976ZM71.5599 15.7122C68.1272 15.7122 66.0147 13.4676 66.0147 10.187C66.0147 6.90647 68.0391 4.66187 71.5599 4.66187C74.9927 4.66187 77.1051 6.90647 77.1051 10.187C77.1051 13.4676 74.9927 15.7122 71.5599 15.7122ZM71.5599 13.6403C73.4964 13.6403 73.8484 11.8273 73.8484 10.187C73.8484 8.54676 73.4964 6.73381 71.5599 6.73381C69.6235 6.73381 69.2714 8.54676 69.2714 10.187C69.3594 11.8273 69.6235 13.6403 71.5599 13.6403ZM84.6748 7.76978C84.6748 7.07914 83.9707 6.73381 83.2665 6.73381C82.3863 6.73381 82.0343 6.99281 82.0343 7.68345C82.0343 9.32374 88.1076 8.3741 88.1076 12.259C88.1076 14.5036 85.291 15.6259 83.3545 15.6259C80.89 15.6259 78.7775 14.6763 78.6895 12.3453H81.5942C81.6822 13.1223 82.3863 13.6403 83.3545 13.6403C84.2347 13.6403 84.8509 13.295 84.8509 12.518C84.8509 11.6547 83.3546 11.3094 82.7384 11.223C80.714 10.7914 78.8655 10.2734 78.8655 7.94245C78.8655 5.78417 81.5061 4.83453 83.3545 4.83453C85.555 4.83453 87.4915 5.61151 87.5795 7.94245H84.6748V7.76978ZM95.1492 7.76978C95.1492 7.07914 94.445 6.73381 93.7409 6.73381C92.8607 6.73381 92.5086 6.99281 92.5086 7.68345C92.5086 9.32374 98.5819 8.3741 98.5819 12.259C98.5819 14.5036 95.7653 15.6259 93.8289 15.6259C91.3643 15.6259 89.2519 14.6763 89.1638 12.3453H92.0685C92.1565 13.1223 92.8607 13.6403 93.8289 13.6403C94.7091 13.6403 95.3252 13.295 95.3252 12.518C95.3252 11.6547 93.8289 11.3094 93.2127 11.223C91.1883 10.7914 89.3399 10.2734 89.3399 7.94245C89.3399 5.78417 91.9805 4.83453 93.8289 4.83453C96.0294 4.83453 97.9658 5.61151 98.0538 7.94245H95.1492V7.76978ZM0 20.7194H5.72127C8.44988 20.5468 11.1785 21.6691 11.1785 24.6043C11.1785 26.2446 10.0342 27.3669 8.5379 27.8849C10.4743 28.3165 11.8826 29.6115 11.8826 31.7698C11.8826 34.705 8.0978 35.8273 5.80929 35.6547H0V20.7194ZM5.80929 26.6763C7.2176 26.6763 7.92176 26.1583 7.92176 24.9496C7.92176 23.741 7.12959 23.223 5.80929 23.223H3.25672V26.7626L5.80929 26.6763ZM5.80929 33.0648C7.30562 33.0648 8.36186 32.8058 8.36186 31.0791C8.36186 29.3525 7.30562 29.0935 5.80929 29.0935H3.25672V33.0648H5.80929ZM17.0758 20.7194V35.5683H13.9071V20.7194H17.0758ZM26.6699 34.2734C25.9658 35.223 24.9976 35.8273 23.4132 35.8273C22.357 35.8273 20.3325 35.0504 19.9804 33.4964C19.8044 32.8921 19.8044 32.2014 19.8044 31.8561V25.1223H22.9731V31.4245C22.9731 32.5468 23.3252 33.8417 24.8215 33.8417C25.7897 33.8417 26.6699 32.9784 26.6699 31.4245V25.2086H29.8386V33.6691C29.8386 34.2734 29.9267 34.8777 29.9267 35.482H26.7579L26.6699 34.2734ZM35.3839 31.2518C35.3839 32.6331 35.5599 33.8417 37.2323 33.8417C38.2885 33.8417 38.9047 33.4101 39.1687 32.4604H41.9853C41.7213 35.0504 39.6968 35.8273 37.2323 35.8273C33.6235 35.8273 32.1272 33.8417 32.1272 30.3885C32.1272 27.2806 33.9756 24.8633 37.2323 24.8633C39.1687 24.8633 40.8411 25.554 41.7213 27.3669C41.9853 27.9712 42.1614 28.5755 42.2494 29.1799C42.3374 29.7842 42.3374 30.4748 42.3374 31.1655L35.3839 31.2518ZM39.0807 29.1799C39.0807 28.0576 38.7286 27.0216 37.2323 27.0216C35.824 27.0216 35.4719 28.0576 35.3839 29.1799H39.0807ZM52.5477 24.9496C52.4597 23.482 51.5795 22.705 49.9951 22.705C48.7629 22.705 47.6186 23.3094 47.6186 24.6043C47.6186 26.2446 49.1149 26.4173 50.4352 26.6763C52.7237 27.2806 56.1565 27.8849 56.1565 30.9065C56.1565 34.6187 52.8998 35.9137 49.643 35.9137C46.2103 35.9137 43.7457 34.6187 43.8338 30.8201H47.1785C47.0905 32.4604 48.0587 33.5827 49.7311 33.5827C51.0514 33.5827 52.7237 33.1511 52.7237 31.5971C52.7237 29.8705 50.5232 29.6978 49.291 29.3525C47.1785 28.8345 44.2739 27.8849 44.2739 25.2086C44.2739 21.8417 47.4426 20.2878 50.6113 20.2878C53.5159 20.2878 55.8044 21.8417 55.8044 24.8633L52.5477 24.9496ZM58.357 35.5683V20.7194H61.5257V26.5036C62.1418 25.554 63.1981 24.9496 64.7824 24.9496C65.8386 24.9496 67.8631 25.7266 68.2152 27.1942C68.3912 27.7986 68.3912 28.4892 68.3912 28.8345V35.5683H65.3105V29.3525C65.3105 28.2302 64.9584 27.0216 63.4621 27.0216C62.4939 27.0216 61.6137 27.8849 61.6137 29.3525V35.5683H58.357ZM74.4646 20.7194V23.3957H71.1198V20.7194H74.4646ZM74.2885 25.2086V35.5683H71.1198V25.2086H74.2885ZM79.8338 31.2518C79.8338 32.6331 80.0098 33.8417 81.6822 33.8417C82.7384 33.8417 83.3546 33.4101 83.6186 32.4604H86.4352C86.1712 35.0504 84.1467 35.8273 81.6822 35.8273C78.0734 35.8273 76.577 33.8417 76.577 30.3885C76.577 27.2806 78.4255 24.8633 81.6822 24.8633C83.6186 24.8633 85.291 25.554 86.1712 27.3669C86.4352 27.9712 86.6113 28.5755 86.6993 29.1799C86.7873 29.7842 86.7873 30.4748 86.7873 31.1655L79.8338 31.2518ZM83.4426 29.1799C83.4426 28.0576 83.0905 27.0216 81.5942 27.0216C80.1858 27.0216 79.8338 28.0576 79.7457 29.1799H83.4426ZM91.8044 20.7194V35.5683H88.6357V20.7194H91.8044ZM101.839 20.7194H105.007V33.5827C105.007 34.2734 105.095 34.964 105.095 35.6547H101.927C101.927 35.1367 101.839 34.705 101.839 34.187C101.134 35.3957 99.9902 36 98.5819 36C95.5013 36 94.0049 33.1511 94.0049 30.4748C94.0049 27.7122 95.6773 24.9496 98.934 24.9496C99.9902 24.9496 101.134 25.554 101.751 26.4173L101.839 20.7194ZM99.5501 33.8417C101.223 33.8417 101.839 31.8561 101.839 30.3885C101.839 29.0072 101.311 26.9352 99.5501 26.9352C97.5257 26.9352 97.2616 28.7482 97.2616 30.3885C97.2616 31.9424 97.5257 33.8417 99.5501 33.8417ZM100.078 15.3669C99.5501 15.3669 99.11 14.9353 99.11 14.4173C99.11 13.8993 99.5501 13.4676 100.078 13.4676C100.606 13.4676 101.046 13.8993 101.046 14.4173C101.046 14.9353 100.694 15.3669 100.078 15.3669ZM100.078 13.2086C99.4621 13.2086 98.934 13.7266 98.934 14.3309C98.934 14.9353 99.4621 15.4532 100.078 15.4532C100.694 15.4532 101.223 14.9353 101.223 14.3309C101.223 13.7266 100.694 13.2086 100.078 13.2086Z" fill="#231F20"/>
<path d="M100.078 14.3308H99.8142V13.8992H100.166C100.342 13.8992 100.518 13.8992 100.518 14.0718C100.518 14.3308 100.254 14.3308 100.078 14.3308ZM100.694 14.0718C100.694 13.8128 100.606 13.7265 100.254 13.7265H99.6381V15.0215H99.8142V14.4172H100.078L100.518 15.0215H100.694L100.342 14.4172C100.518 14.4172 100.694 14.3308 100.694 14.0718ZM106.856 35.4819C106.328 35.4819 105.888 35.0502 105.888 34.5323C105.888 34.0143 106.328 33.5826 106.856 33.5826C107.384 33.5826 107.824 34.0143 107.824 34.5323C107.824 35.0502 107.384 35.4819 106.856 35.4819ZM106.856 33.3236C106.24 33.3236 105.711 33.8416 105.711 34.4459C105.711 35.0502 106.24 35.5682 106.856 35.5682C107.472 35.5682 108 35.0502 108 34.4459C108 33.8416 107.472 33.3236 106.856 33.3236Z" fill="#231F20"/>
<path d="M106.768 34.4459H106.504V34.0143H106.856C107.032 34.0143 107.208 34.0143 107.208 34.1869C107.208 34.4459 107.032 34.4459 106.768 34.4459ZM107.472 34.1869C107.472 33.9279 107.384 33.8416 107.032 33.8416H106.416V35.1366H106.592V34.5322H106.856L107.208 35.1366H107.384L107.032 34.5322C107.296 34.5322 107.472 34.4459 107.472 34.1869Z" fill="#231F20"/>
</svg>
