<svg width="36" height="37" viewBox="0 0 36 37" fill="none" xmlns="http://www.w3.org/2000/svg">
<path d="M33.1613 32.2296C32.0247 32.2296 31.1504 33.098 31.1504 34.2271C31.1504 35.3561 32.0247 36.2246 33.1613 36.2246C34.2105 36.2246 35.1722 35.3561 35.1722 34.2271C35.1722 33.098 34.2979 32.2296 33.1613 32.2296ZM33.1613 35.8772C32.1996 35.8772 31.5001 35.1824 31.5001 34.2271C31.5001 33.2717 32.1996 32.5769 33.1613 32.5769C34.123 32.5769 34.8225 33.2717 34.8225 34.2271C34.8225 35.1824 34.2105 35.8772 33.1613 35.8772Z" fill="#008BCC"/>
<path d="M34.2097 33.7059C34.2097 33.2717 34.0349 33.098 33.4229 33.098H32.4611V35.356H32.7234V34.4007H33.248L33.86 35.356H34.2097L33.5103 34.4007C33.9474 34.3139 34.2097 34.1402 34.2097 33.7059ZM33.1606 34.0533H32.7234V33.3585H33.3354C33.5977 33.3585 33.86 33.3585 33.86 33.7059C33.9474 34.1402 33.4229 34.0533 33.1606 34.0533ZM17.4231 20.9393C17.3357 20.9393 17.3357 20.9393 17.2483 21.0261L13.9259 26.0633C14.9751 26.4976 16.1117 26.7581 17.3357 26.7581C18.5597 26.7581 19.6963 26.4976 20.7455 26.0633L17.4231 21.0261C17.5105 20.9393 17.4231 20.9393 17.4231 20.9393ZM14.1882 16.7706L9.20467 16.3364C9.02981 16.9443 8.94238 17.6391 8.94238 18.3339C8.94238 20.4182 9.72926 22.3289 10.9533 23.8053L14.4505 17.2048C14.6253 17.0311 14.5379 16.8575 14.1882 16.7706Z" fill="#008BCC"/>
<path d="M25.2924 10.4307V0.616882H9.46751V10.4307H-0.412109V26.1501H9.46751V35.9639H25.2924V26.1501H35.172V10.4307H25.2924ZM17.4237 8.60688C21.358 8.60688 24.7678 10.8649 26.2541 14.252H19.2597C18.298 14.252 17.8608 13.6441 17.7734 13.2098C17.7734 12.6887 17.8608 12.515 18.298 11.9071C18.8225 11.2123 18.4728 9.99644 17.3362 9.9096C16.1996 9.9096 15.8499 11.2123 16.3745 11.9071C16.8116 12.515 16.8991 12.6887 16.8991 13.2098C16.8991 13.6441 16.4619 14.252 15.4128 14.252H8.41835C10.0795 10.9518 13.4893 8.60688 17.4237 8.60688V8.60688ZM7.63147 18.3338C7.63147 17.118 7.89376 15.9889 8.24348 14.9468L14.8008 15.5547C16.0248 15.7284 16.1996 16.9443 15.8499 17.639L11.391 26.0633C9.11779 24.2395 7.63147 21.4604 7.63147 18.3338ZM22.7569 26.4975C21.1832 27.5397 19.3471 28.0608 17.3362 28.0608C15.3253 28.0608 13.4893 27.4528 11.9156 26.4975L16.7242 19.4629C17.0739 18.9418 17.5985 19.0286 17.9482 19.4629L22.7569 26.4975ZM23.4563 25.9764L18.9974 17.639C18.6477 16.9443 18.8225 15.7284 20.0466 15.5547L26.6038 14.9468C27.041 15.9889 27.2158 17.2048 27.2158 18.3338C27.2158 21.4604 25.7295 24.2395 23.4563 25.9764Z" fill="#008BCC"/>
<path d="M23.8058 12.8625C22.7567 11.6466 21.3578 10.6913 19.784 10.257C20.3086 11.0386 19.8715 12.1677 19.4343 12.6888C19.3469 12.7756 19.4343 12.8625 19.4343 12.8625H23.8058ZM20.6583 16.7706C20.3086 16.7706 20.3086 16.9443 20.3961 17.118L23.8933 23.7184C25.1173 22.242 25.9042 20.3314 25.9042 18.247C25.9042 17.5522 25.8167 16.8575 25.6419 16.2495L20.6583 16.7706ZM15.0628 10.3439C13.4891 10.7781 12.0902 11.7334 11.041 12.9493H15.4125C15.5 12.9493 15.5 12.8625 15.4125 12.7756C14.9754 12.1677 14.5382 11.1255 15.0628 10.3439Z" fill="#008BCC"/>
</svg>
