<svg width="30" height="37" fill="none" xmlns="http://www.w3.org/2000/svg"><path d="M26.997.617c-3.846 1.91-7.694 2.953-12.152 2.953-4.46 0-8.306-1.042-12.153-2.953-2.536 4.95-2.885 12.94-.7 19.627 2.099 6.427 6.208 12.333 12.853 15.98 6.732-3.647 10.754-9.553 12.852-15.98 2.273-6.687 1.836-14.677-.7-19.627zM25.25 19.463c-1.924 5.471-4.809 10.335-10.317 13.722-5.508-3.387-8.48-8.25-10.317-13.722-1.66-4.864-2.098-10.596-.262-15.025 2.798.956 4.371 1.216 5.858 1.477 1.399.26 2.623.347 4.721.347 2.01 0 3.322-.174 4.721-.347 1.487-.26 3.148-.521 5.858-1.477 1.749 4.43 1.399 10.161-.262 15.025z" fill="#008BCC"/><path d="M19.654 7.13c-1.574.174-3.235.348-4.809.348-1.574 0-3.148-.174-4.809-.347a53.37 53.37 0 01-4.808-1.043c-1.137 3.3-.962 7.47 0 11.117 1.66 6.948 5.945 12.245 9.617 14.59 3.76-2.345 7.956-7.642 9.617-14.59.875-3.735 1.137-7.816 0-11.117-1.66.435-3.147.869-4.808 1.043zM13.97 28.583c-.088.347.087.521.087.695-.087.26-.262.173-.35 0-.174-.26-.262-.434-.262-.869-.087-.695.262-.955.437-1.129.175-.174.35-.26.35-.26l.087 1.129c-.174 0-.35.087-.35.434zm1.486 1.129c0 .174-.087.347-.437.347-.262 0-.437-.087-.437-.434-.088-1.39-.088-3.908-.088-3.908s.35.087.612.26c.088 0 .263.174.438.348 0 .087.087.087.087.174a57.69 57.69 0 00-.175 3.213zm1.137-2.605a2.2 2.2 0 01-.7.347V26.41s.088-.087.088-.26c-.088-.174-.787-.696-1.137-.87a11.53 11.53 0 00-1.311-.433c-.875-.348-1.225-1.13-.875-1.998.088-.347.525-.521.7-.608.175-.087.524-.174.524-.174l.088 1.216s-.088 0-.175.174c-.088.174.087.347.175.347.612.26 1.399.608 2.01.956.787.434 1.05.781 1.05 1.39.087.433-.175.78-.437.954zm-2.186-5.646c.612.087.787.087 1.311.174l-.087 2.432-.525-.26-.524-.261-.175-2.085zm3.497.521c-.087.435-.35.782-.787 1.043-.437.26-.961.26-.961.26v-1.476s.087 0 .174-.087c.088-.087.088-.174.088-.26 0-.087-.088-.174-.175-.261-.175-.087-.35-.087-.437-.087l-2.099-.26c-1.224-.174-2.185-.956-2.098-2.172.088-.781.874-1.042 1.486-1.302l.438.868c.087.348.174.521.174.521s-.262.087-.262.26c0 .174.262.261.35.261.874.087 2.098.26 2.71.521.437.174.787.348 1.05.695.35.608.436 1.042.35 1.477zm-4.022-5.645s.263 0 1.05.087c.524 0 .961.174.961.174l-.087 2.605c-.612-.087-.962-.173-1.487-.26-.174-.956-.437-1.303-.786-1.998-.088-.173 0-.26 0-.26.087-.087.437-.174.437-.174l-.088-.174zm2.36 2.606s.088-1.216.088-1.824c.35-.087.438-.434.263-.695-.088-.173-.35-.26-.438-.26-.699-.174-1.311-.174-2.01-.26a69.481 69.481 0 01-1.662-.261c-1.136-.26-2.185-.869-2.71-1.911-.612-1.303-.087-2.953 1.224-3.56.962-.522 2.011-.435 2.973 0 .35.086.524.434.7.694.087.087.261.174.349.347.087.087-.088.087-.088.087-.174.087-.961.087-1.136 0h-1.05c.263.174.613.348.962.521.175.087.35.087.525.174.087 0 .262.087.262.174s-.175.087-.35.173c-.262.087-.611.087-.961 0-.525-.086-.787-.434-1.137-.26-.262.174-.262.434-.175.782.088.52.612.694 1.05.868 1.486.521 3.147.174 4.546.955.524.26 1.224.869 1.311 1.477.438 2.431-2.535 2.779-2.535 2.779zm2.624-8.077c-.088.26-.175.26-.35.434-.35.348-.874.695-1.399 1.13-.35.26-.612.434-.874.868-.087.087-.175.26-.175.26-.874-.173-1.661-.173-2.36-.347v-.695s.786 0 .874-.521c0 0 0-.174-.088-.26-.087-.087-.35-.174-.437-.174.612.087 1.224.347 1.836.608 0-.087-.087-.348-.087-.348-.088-.087-.175-.173-.437-.26-.35-.087-1.312-.174-1.312-.174h.787c.175 0 .437-.087.437-.174.088-.086 0-.26-.175-.434l-.262-.26c-.087-.174-.262-.348-.35-.521-.175-.261-.874-.522-.874-.522s-.087-.434.087-.607c.088-.174.438-.174.525-.087a7.33 7.33 0 001.661.694c.175.087.175.087.175.348.088.434-.087 1.042 0 1.303 0 .086.175.086.175.086.612-.347.962-.868 1.574-1.129.437-.173 1.224.174 1.049.782zm8.306 21.451c-1.05 0-1.924.869-1.924 1.911s.875 1.91 1.924 1.91 1.923-.868 1.923-1.91c0-1.042-.874-1.91-1.923-1.91zm0 3.561c-.962 0-1.661-.695-1.661-1.65s.699-1.65 1.66-1.65c.962 0 1.662.695 1.662 1.65s-.7 1.65-1.661 1.65z" fill="#008BCC"/><path d="M28.22 33.706c0-.434-.174-.608-.786-.608h-.962v2.258h.262v-.955h.438l.612.955h.35l-.7-.955c.437-.087.787-.26.787-.695zm-1.048.434h-.438v-.695h.612c.263 0 .525 0 .525.348 0 .347-.437.347-.7.347zM13.008 10.257c.175.174.175.348.437.348.175 0 .262-.087.35-.174h.175c-.263-.26-.875-.26-1.312-.348.175.174.263.087.35.174z" fill="#008BCC"/></svg>