<svg width="85" height="85" fill="none" xmlns="http://www.w3.org/2000/svg"><path d="M84 42.5C84 65.42 65.42 84 42.5 84S1 65.42 1 42.5 19.58 1 42.5 1 84 19.58 84 42.5z" fill="#12C64B" stroke="#2D2A26" stroke-width="2"/><path d="M57.853 58.21a2.516 2.516 0 01-3.439.904c-6.611-3.864-14.247-4.482-19.492-4.347A48.405 48.405 0 0024.814 56.1a2.516 2.516 0 01-1.333-4.83 52.403 52.403 0 0111.147-1.526 49.42 49.42 0 0110.74.778 36.274 36.274 0 0111.592 4.23 2.512 2.512 0 01.893 3.459zm4.675-9.712a2.976 2.976 0 01-4.076 1.068c-7.829-4.574-16.87-5.313-23.085-5.12a57.133 57.133 0 00-11.973 1.58 2.98 2.98 0 01-1.58-5.743 61.762 61.762 0 0113.205-1.787 57.682 57.682 0 0112.726.923 42.89 42.89 0 0113.716 5.013 2.98 2.98 0 011.067 4.066zm6.052-10.639a3.647 3.647 0 01-5 1.308c-18.612-10.876-42.755-4.409-42.982-4.346a3.657 3.657 0 11-1.932-7.046 75.879 75.879 0 0116.155-2.178 71.554 71.554 0 0115.604 1.13 52.714 52.714 0 0116.826 6.114 3.657 3.657 0 011.328 5.018z" fill="#fff"/></svg>